# This file uses meters as units for non-parametric coordinates.

mtllib windowDer.mtl
g default
v 50.000000 0.000000 5.000000
v 100.000000 0.000000 5.000000
v 50.000000 90.000000 5.000000
v 100.000000 90.000000 5.000000
v 50.000000 90.000000 -5.000000
v 100.000000 90.000000 -5.000000
v 50.000000 0.000000 -5.000000
v 100.000000 0.000000 -5.000000
vt 0.000613 -0.000184
vt 0.347966 -0.000273
vt 0.002391 0.999108
vt 0.342731 0.999956
vt -0.001970 2.003541
vt 0.348850 1.999929
vt -0.000494 2.996116
vt 0.348013 2.995626
vt 0.000911 3.682440
vt 0.426873 3.682440
vt 0.628227 0.010930
vt 0.633449 0.934178
vt -0.415980 0.011863
vt -0.415754 0.934603
vn 0.000000 0.000000 1.000000
vn 0.000000 0.000000 1.000000
vn 0.000000 0.000000 1.000000
vn 0.000000 0.000000 1.000000
vn 0.000000 1.000000 0.000000
vn 0.000000 1.000000 0.000000
vn 0.000000 1.000000 0.000000
vn 0.000000 1.000000 0.000000
vn 0.000000 0.000000 -1.000000
vn 0.000000 0.000000 -1.000000
vn 0.000000 0.000000 -1.000000
vn 0.000000 0.000000 -1.000000
vn 0.000000 -1.000000 0.000000
vn 0.000000 -1.000000 0.000000
vn 0.000000 -1.000000 0.000000
vn 0.000000 -1.000000 0.000000
vn 1.000000 0.000000 0.000000
vn 1.000000 0.000000 0.000000
vn 1.000000 0.000000 0.000000
vn 1.000000 0.000000 0.000000
vn -1.000000 0.000000 0.000000
vn -1.000000 0.000000 0.000000
vn -1.000000 0.000000 0.000000
vn -1.000000 0.000000 0.000000
s off
g pCube18
usemtl lambert6SG
f 1/1/1 2/2/2 4/4/3 3/3/4
f 3/3/5 4/4/6 6/6/7 5/5/8
f 5/5/9 6/6/10 8/8/11 7/7/12
f 7/7/13 8/8/14 2/10/15 1/9/16
f 2/2/17 8/11/18 6/12/19 4/4/20
f 7/13/21 1/1/22 3/3/23 5/14/24
